<svg xmlns="http://www.w3.org/2000/svg" width="256" height="256"><path fill-opacity=".016" d="M0 128.004v128.004l128.25-.254 128.25-.254.254-127.75L257.008 0H0v128.004m.485.496c0 70.4.119 99.053.265 63.672.146-35.38.146-92.98 0-128C.604 29.153.485 58.1.485 128.5" fill="#1976D2" fill-rule="evenodd"/><path fill-opacity=".159" d="M0 91.351v91.407l37.75 36.659 37.75 36.658 60-.288 60-.287 8.761-3.135c12.586-4.503 19.043-8.669 29.239-18.865 4.95-4.95 10.514-11.582 12.365-14.739 4.739-8.08 8.804-20.715 10.059-31.261.703-5.91.993-39.732.844-98.5-.14-55.494-.424-77.151-.747-57-.327 20.364-.814 30.862-1.305 28.114-1.277-7.153-6.094-18.409-11.096-25.933-9.505-14.298-24.412-25.387-42.12-31.331l-7-2.35L97.25.222 0-.057v91.408M.479 92c0 50.325.122 70.913.271 45.75.148-25.162.148-66.337 0-91.5C.601 21.088.479 41.675.479 92M76 116v41h80V75H76v41" fill="#1976D2" fill-rule="evenodd"/><path fill-opacity=".085" d="M0 91.378c0 75.223.237 91.574 1.342 92.491.738.612 1.582.873 1.876.579.294-.293 8.105 7.248 17.357 16.759 9.252 9.511 16.001 16.168 14.997 14.793-1.004-1.375 7.332 6.725 18.523 18 11.192 11.275 19.743 19.6 19.002 18.5-.74-1.1-.187-.762 1.23.75l2.577 2.75h53.989c38.605 0 54.185-.318 54.678-1.114.411-.666 2.246-.906 4.559-.595 2.306.309 3.87.106 3.87-.503 0-.562.9-.786 1.999-.499 1.099.288 2.27.085 2.601-.451.331-.536 1.232-.733 2.001-.438.77.296 1.399.053 1.399-.538 0-.592.675-.817 1.5-.5.825.316 1.5.102 1.5-.477 0-.578.558-.866 1.241-.638.683.228 1.866-.211 2.629-.974.763-.763 2.005-1.151 2.759-.862.754.289 1.371.064 1.371-.501 0-.566.412-.774.915-.463.503.311 1.065.18 1.25-.291.365-.934 9.136-6.636 9.651-6.275.173.122 1.211-.917 2.307-2.31 1.096-1.393 2.331-2.429 2.746-2.302 1.088.333 7.099-5.511 6.562-6.38-.247-.401.702-1.635 2.111-2.743 1.409-1.108 2.461-2.157 2.339-2.33-.361-.515 5.341-9.286 6.275-9.651.471-.185.602-.747.291-1.25s-.103-.915.463-.915c.565 0 .79-.617.501-1.371-.289-.754.099-1.996.862-2.759.763-.763 1.202-1.946.974-2.629-.228-.683.06-1.241.638-1.241.579 0 .793-.675.477-1.5-.317-.825-.092-1.5.5-1.5.591 0 .816-.675.5-1.5-.317-.825-.048-1.5.598-1.5.703 0 .93-.77.567-1.916-.335-1.054-.138-2.206.436-2.561.574-.355.767-1.749.429-3.097-.364-1.45-.059-3.122.746-4.092 1.127-1.358 1.368-17.694 1.395-94.737.018-51.203-.207-77.797-.5-59.097-.338 21.573-.815 32.172-1.305 29-2.882-18.67-16.372-38.977-33.228-50.022-7.889-5.17-21.091-10.051-30.822-11.396C185.539.371 151.485 0 91.428 0H0v91.378M.479 92c0 50.325.122 70.913.271 45.75.148-25.162.148-66.337 0-91.5C.601 21.088.479 41.675.479 92M75 109.339c0 18.887.297 43.217.661 54.068l.66 19.728 41.59-.317c41.143-.315 41.645-.343 46.768-2.66 2.848-1.289 5.971-3.219 6.939-4.289 1.708-1.887 1.512-2.196-6.428-10.178l-8.19-8.233.189-27.479c.104-15.113.354-24.794.556-21.511.214 3.473.698 5.433 1.158 4.688 1.15-1.86 21.005-1.864 22.288-.004.591.858.792-2.108.552-8.152-.445-11.21-3.11-17.59-9.707-23.237-7.649-6.547-9.423-6.763-55.651-6.763H75v34.339" fill="#1976D2" fill-rule="evenodd"/><path fill-opacity=".156" d="M1 .321C1 .54 17.449 17.095 37.553 37.109L74.107 73.5l43.196.5 43.197.5 4.923 2.423c6.31 3.106 12.211 9.024 14.883 14.928 1.613 3.565 2.25 7.564 2.73 17.149.344 6.875.702 11.318.795 9.872.195-3.025 3.216-6.2 3.917-4.116.233.691.912.954 1.51.584 1.677-1.036 8.748-2.159 8.221-1.306-.257.416.228 1.023 1.079 1.35.85.326 1.302.199 1.004-.283-.298-.483.793-1.073 2.424-1.312 2.53-.372 2.786-.217 1.74 1.051-1.06 1.286-.929 1.329.958.324 2.605-1.388 4.657-1.524 3.874-.257-.309.499.967.438 2.834-.135 2.393-.735 4.321-.719 6.536.053 1.727.602 2.905.714 2.618.249-.288-.465.556-1.052 1.874-1.304 1.798-.343 2.257-.092 1.837 1.002-.474 1.237-.199 1.267 1.794.201 1.737-.93 2.454-.959 2.737-.11.21.632.872.847 1.47.477 1.677-1.036 8.748-2.159 8.221-1.306-.257.416.228 1.023 1.079 1.35.85.326 1.302.199 1.004-.283-.298-.483.793-1.073 2.424-1.312 2.53-.372 2.786-.217 1.74 1.051-1.06 1.286-.929 1.329.958.324 2.605-1.388 4.657-1.524 3.874-.257-.309.499 1.031.418 2.977-.179l3.537-1.086-.449-21.571c-.247-11.864-.707-23.371-1.022-25.571-.723-5.054-1.377-8.856-1.633-9.5-.109-.275-.303-.95-.431-1.5s-.334-1.225-.459-1.5c-.125-.275-.43-1.605-.678-2.957-.248-1.351-1.002-2.806-1.675-3.234-.674-.428-.863-.785-.42-.794 1.504-.028-6.365-13.672-11.147-19.329C227.979 15.648 214.761 7.349 198.5 2.788 190.506.545 190.432.543 95.75.233 43.637.063 1 .102 1 .321M73.884 82.75c-.064 4.263-.322 6.963-.573 6-.252-.963-.901-1.75-1.443-1.75s-.777-.338-.523-.75c.255-.412-1.025-.75-2.845-.75-1.82 0-3.104.332-2.853.739.594.959-2.725-.229-4.589-1.644-1.134-.861-1.259-.792-.586.325.639 1.059.441 1.261-.776.794-.898-.345-1.909-.178-2.248.37-.339.549-1.488.721-2.553.383-3.052-.969-11.122-1.228-9.677-.311 2.269 1.439-.217.896-3.378-.739-1.683-.87-2.748-1.077-2.366-.46.483.783-.136.915-2.039.437-1.693-.425-2.503-.313-2.128.293.342.554-.662.98-2.307.98-1.602 0-2.75-.263-2.552-.584.199-.32-1.128-.583-2.948-.583s-3.104.332-2.853.739c.594.959-2.725-.229-4.589-1.644-1.134-.861-1.259-.792-.586.325.639 1.059.441 1.261-.776.794-.898-.345-1.909-.178-2.248.37-.339.549-1.534.706-2.655.35-1.122-.356-4.122-.712-6.666-.791L2.5 85.5 1.938 97c-.309 6.325-.657 28.262-.773 48.75L.955 183H75v-54c0-29.7-.225-54-.5-54s-.552 3.487-.616 7.75m96.851 87.238c2.674 2.847 3.453 3.211 4.5 2.102 1.029-1.09.985-1.247-.235-.84-.825.275-2.85-.671-4.5-2.102-2.875-2.494-2.865-2.458.235.84" fill="#1976D2" fill-rule="evenodd"/></svg>